# xmcd
#
# Track frame offsets: 
#        150
#        14344
#        29593
#        48354
#        62482
#        79335
#        95866
#        110126
#        123825
#        135267
#        152136
#        164665
#        183979
#        200576
#        219472
#
# Disc length: 3184 seconds
#
# Revision: 0
# Processed by: cddbd v1.4PL0 Copyright (c) Steve Scherf et al.
# Submitted via: ExactAudioCopy v0.90b4
#
DISCID=d50c6e0f
DTITLE=Tim Mensy - Tim Mensy
DYEAR=2002
DGENRE=Country
TTITLE0=That's Love
TTITLE1=He Turned Into Me
TTITLE2=I Buried Our Love
TTITLE3=I Would Live For You
TTITLE4=Off My Hands
TTITLE5=River Of Sin
TTITLE6=Mama Knows
TTITLE7=I Just Wanted You To Know
TTITLE8=Feels Like Love To Me
TTITLE9=One Doesn't Want To Let Go
TTITLE10=This Side Of The Door
TTITLE11=Love Lives On
TTITLE12=Another Day
TTITLE13=I Don't Want To Be That Strong
TTITLE14=Driftwood
EXTD=
EXTT0=
EXTT1=
EXTT2=
EXTT3=
EXTT4=
EXTT5=
EXTT6=
EXTT7=
EXTT8=
EXTT9=
EXTT10=
EXTT11=
EXTT12=
EXTT13=
EXTT14=
PLAYORDER=
